<svg width="1409" height="64" viewBox="0 0 1409 64" fill="none" xmlns="http://www.w3.org/2000/svg">
<g clip-path="url(#clip0_285_2631)">
<path d="M0 27.8616L10.9 26.708C21.8 25.4672 44 23.2906 65 25.5326C87.3 27.8616 109 34.827 131 39.4634C152.7 44.1868 175 46.3635 196 41.7924C218.2 37.2214 240 25.4672 262 27.8616C283.6 30.256 305 46.3635 327 44.1215C349.1 41.7924 371 20.8962 393 20.8962C414.5 20.8962 436 41.7924 458 45.2751C480 48.7578 502 34.827 524 24.3789C545.5 13.9308 567 6.9654 589 15.0844C610.9 23.2906 633 46.3635 655 56.8769C676.4 67.2597 698 65.083 720 58.0523C741.8 51.1522 764 39.3981 785 35.9807C807.3 32.4327 829 37.2214 851 39.4634C872.7 41.7924 895 41.7924 916 40.6388C938.2 39.3981 960 37.2214 982 38.3097C1003.6 39.3981 1025 44.1868 1047 46.4288C1069.1 48.7578 1091 48.7578 1113 49.9115C1134.5 51.1522 1156 53.3289 1178 46.4288C1200 39.3981 1222 23.2906 1244 22.0499C1265.5 20.8962 1287 34.827 1309 40.6388C1330.9 46.3635 1353 44.1868 1375 38.3097C1396.4 32.4327 1418 23.2906 1429 18.5672L1440 13.9308V0H1429.1C1418.2 0 1396 0 1375 0C1352.7 0 1331 0 1309 0C1287.3 0 1265 0 1244 0C1221.8 0 1200 0 1178 0C1156.4 0 1135 0 1113 0C1090.9 0 1069 0 1047 0C1025.5 0 1004 0 982 0C960 0 938 0 916 0C894.5 0 873 0 851 0C829.1 0 807 0 785 0C763.6 0 742 0 720 0C698.2 0 676 0 655 0C632.7 0 611 0 589 0C567.3 0 545 0 524 0C501.8 0 480 0 458 0C436.4 0 415 0 393 0C370.9 0 349 0 327 0C305.5 0 284 0 262 0C240 0 218 0 196 0C174.5 0 153 0 131 0C109.1 0 87 0 65 0C43.6 0 22 0 11 0H0V27.8616Z" fill="#FF9AB8"/>
</g>
<defs>
<clipPath id="clip0_285_2631">
<rect width="1409" height="64" fill="white"/>
</clipPath>
</defs>
</svg>
