<svg xmlns="http://www.w3.org/2000/svg" version="1.1" xmlns:xlink="http://www.w3.org/1999/xlink" xmlns:svgjs="http://svgjs.dev/svgjs" width="1440" height="100" preserveAspectRatio="none" viewBox="0 0 1440 100">
    <g mask="url(&quot;#SvgjsMask1042&quot;)" fill="none">
        <path d="M 0,17 C 28.8,24.6 86.4,56 144,55 C 201.6,54 230.4,5.4 288,12 C 345.6,18.6 374.4,83.4 432,88 C 489.6,92.6 518.4,37.2 576,35 C 633.6,32.8 662.4,76.2 720,77 C 777.6,77.8 806.4,41.8 864,39 C 921.6,36.2 950.4,62.2 1008,63 C 1065.6,63.8 1094.4,44.2 1152,43 C 1209.6,41.8 1238.4,65.4 1296,57 C 1353.6,48.6 1411.2,12.2 1440,1L1440 100L0 100z" fill="rgba(255, 154, 184, 1)"></path>
    </g>
    <defs>
        <mask id="SvgjsMask1042">
            <rect width="2440" height="100" fill="#ffffff"></rect>
        </mask>
    </defs>
</svg>